<svg width="504" height="76" viewBox="0 0 504 76" fill="none" xmlns="http://www.w3.org/2000/svg" xmlns:xlink="http://www.w3.org/1999/xlink">
<path d="M34.865,70.516L7.906,74.167L7.442,70.742L14.169,67.231L8.36,24.332L0.941,22.736L0.479,19.312L23.235,16.231C30.181,15.29 35.582,16.615 39.439,20.205C41.62,22.235 42.934,24.905 43.382,28.214C44.042,33.089 42.885,37.019 39.908,40.006C46.32,41.409 49.987,45.5 50.902,52.275C51.282,55.078 51.049,57.617 50.206,59.896C49.352,62.175 48.07,64.035 46.359,65.472C43.041,68.247 39.21,69.929 34.865,70.516ZM19.367,46.581L22.04,66.326L30.429,65.19C35.187,64.545 38.645,63.335 40.806,61.556C42.968,59.787 43.806,57.118 43.323,53.545C42.84,49.971 41.483,47.543 39.252,46.263C37.022,44.983 34.326,44.555 31.167,44.984L19.367,46.581ZM16.255,23.119L18.737,41.451L26.286,40.428C33.486,39.454 36.65,35.752 35.781,29.325C35.333,26.015 33.83,23.9 31.271,22.975C28.725,22.059 25.093,21.922 20.377,22.56L16.255,23.119ZM80.029,61.692L80.401,65.048L59.915,67.325L59.543,63.969L65.795,60.682L62.7,32.863L56.164,33.59L55.644,28.914C57.56,27.702 59.853,26.948 62.526,26.651C65.198,26.353 67.077,26.788 68.16,27.957C69.234,29.125 69.918,31.008 70.206,33.606L73.126,59.866L80.029,61.692ZM68.653,16.889C67.599,18.219 66.213,18.98 64.496,19.171C62.778,19.361 61.258,18.924 59.936,17.857C58.605,16.793 57.845,15.405 57.654,13.699C57.464,11.982 57.901,10.457 58.966,9.125C60.023,7.805 61.409,7.05 63.126,6.859C64.843,6.669 66.362,7.101 67.682,8.156C69.013,9.22 69.775,10.612 69.966,12.331C70.156,14.038 69.718,15.557 68.653,16.889ZM131.286,57.174L131.584,60.538L112.836,62.19L112.54,58.826L116.473,56.985L96.277,40.353L109.681,27.284L104.064,26.992L103.768,23.628L123.375,21.901L123.673,25.265L117.952,27.262L105.172,39.57L125.305,56.208L131.286,57.174ZM104.504,59.533L104.8,62.897L84.252,64.707L83.956,61.343L90.298,58.198L86.052,10.007L79.484,10.585L79.072,5.899C81.014,4.732 83.325,4.03 86.004,3.793C88.693,3.556 90.562,4.035 91.609,5.229C92.657,6.421 93.295,8.32 93.524,10.923L97.631,57.553L104.504,59.533ZM154.845,59.917C148.946,60.284 144.055,58.898 140.173,55.761C136.279,52.624 134.131,47.82 133.73,41.347C133.328,34.883 134.89,29.645 138.414,25.63C141.938,21.616 146.203,19.454 151.207,19.144C163.101,18.404 169.486,25.074 170.36,39.151L141.338,40.953L141.362,41.353C141.592,45.06 143.085,48.108 145.843,50.502C148.61,52.896 152.241,53.953 156.735,53.674C158.661,53.554 160.475,53.218 162.171,52.663C163.858,52.12 165.08,51.584 165.839,51.056L166.903,50.365L169.424,54.298C169.27,54.415 169.057,54.599 168.785,54.85C168.512,55.103 167.924,55.519 167.018,56.099C166.114,56.678 165.125,57.211 164.055,57.694C161.355,58.963 158.284,59.704 154.845,59.917ZM162.781,34.603C162.313,31.383 161.1,28.982 159.143,27.405C157.186,25.827 154.731,25.129 151.782,25.313C148.843,25.495 146.456,26.467 144.62,28.227C142.794,29.986 141.698,32.556 141.33,35.936L162.781,34.603ZM165.601,7.477L165.485,3.014L189.386,2.393L189.497,6.632L182.419,9.009L195.813,47.722L205.129,7.555L198.668,6.618L198.553,2.154L219.415,1.613L219.525,5.853L213.905,7.088L224.899,46.969L236.267,7.611L229.075,5.605L228.965,1.365L252.403,0.757L252.519,5.221L244.273,7.643L229.393,56.729L220.451,56.961L209.603,19.51L200.309,57.485L191.366,57.717L173.961,9.469L165.601,7.477ZM276.115,57.086C270.205,57.032 265.425,55.302 261.773,51.898C258.113,48.492 256.313,43.547 256.373,37.061C256.431,30.586 258.361,25.471 262.163,21.717C265.963,17.964 270.371,16.111 275.385,16.157C287.301,16.266 293.195,23.373 293.067,37.477L263.989,37.21L263.985,37.61C263.951,41.323 265.223,44.471 267.803,47.057C270.395,49.641 273.939,50.954 278.443,50.995C280.375,51.013 282.205,50.806 283.937,50.373C285.659,49.952 286.917,49.504 287.711,49.032L288.821,48.417L291.055,52.519C290.893,52.624 290.667,52.792 290.379,53.024C290.089,53.256 289.471,53.629 288.529,54.145C287.585,54.658 286.561,55.119 285.459,55.524C282.675,56.598 279.559,57.118 276.115,57.088L276.115,57.086ZM285.831,32.402C285.595,29.157 284.557,26.678 282.715,24.964C280.873,23.25 278.475,22.381 275.521,22.352C272.575,22.325 270.125,23.124 268.169,24.75C266.223,26.375 264.945,28.859 264.339,32.204L285.831,32.402ZM331.595,52.5L338.169,52.73L338.003,57.433C335.933,58.354 333.669,58.77 331.217,58.683C328.765,58.597 327.017,58.066 325.973,57.089C324.939,56.113 324.375,54.732 324.279,52.946C321.281,56.502 317.441,58.198 312.761,58.032C308.091,57.867 304.585,56.804 302.239,54.844C299.907,52.872 298.801,50.192 298.921,46.801C299.151,40.265 303.831,36.661 312.961,35.989L324.825,35.158L324.905,32.887C325.011,29.859 324.467,27.539 323.277,25.927C322.073,24.316 320.113,23.461 317.393,23.367C312.383,23.191 308.291,23.591 305.117,24.567L303.529,25.073L302.299,20.001C303.789,19.22 306.035,18.532 309.033,17.932C312.043,17.334 314.829,17.079 317.387,17.169C322.975,17.366 326.901,18.614 329.169,20.915C331.447,23.216 332.515,26.375 332.375,30.396L331.595,52.5ZM313.165,41.105C311.173,41.291 309.575,41.833 308.367,42.729C307.151,43.637 306.515,44.885 306.459,46.473C306.403,48.062 306.997,49.337 308.247,50.299C309.493,51.261 311.269,51.783 313.571,51.864C317.911,52.018 321.501,50.963 324.347,48.705L324.645,40.244L313.165,41.105ZM354.737,41.849C354.479,46.333 354.985,49.424 356.257,51.123C357.515,52.82 359.531,53.748 362.299,53.906C365.059,54.065 367.349,53.78 369.177,53.053L370.517,57.057C370.289,57.301 369.967,57.619 369.549,58.011C369.141,58.414 368.135,58.923 366.527,59.536C364.921,60.149 363.175,60.402 361.289,60.293C356.549,60.02 352.951,58.467 350.499,55.631C348.043,52.786 346.965,48.78 347.263,43.616L348.299,25.609L344.145,25.37L344.411,20.753L352.351,13.677L356.347,13.906L356.003,19.849L369.153,20.606L368.797,26.79L355.649,26.033L354.737,41.849ZM419.855,60.629L419.581,63.995L399.021,62.314L399.297,58.949L405.759,56.892L407.283,38.215C407.535,35.142 407.217,32.809 406.329,31.217C405.433,29.613 403.655,28.702 400.997,28.485C396.213,28.094 392.267,29.216 389.161,31.853L387.239,55.38L393.681,58.491L393.407,61.857L372.845,60.176L373.121,56.811L379.903,54.78L383.839,6.562L377.269,6.025L377.651,1.336C379.763,0.514 382.159,0.211 384.839,0.431C387.529,0.65 389.289,1.436 390.121,2.788C390.953,4.14 391.263,6.12 391.049,8.725L389.525,27.403C390.747,25.929 392.803,24.679 395.693,23.652C398.579,22.635 401.251,22.227 403.709,22.427C407.769,22.759 410.725,24.14 412.569,26.571C414.417,29.002 415.179,32.169 414.861,36.072L413.111,57.493L419.855,60.629ZM443.695,67.418C437.817,66.783 433.231,64.59 429.935,60.842C426.627,57.093 425.323,51.994 426.021,45.544C426.717,39.106 429.141,34.206 433.293,30.847C437.443,27.486 442.013,26.076 446.997,26.616C458.845,27.897 464.011,35.55 462.495,49.572L433.585,46.444L433.541,46.842C433.141,50.534 434.099,53.793 436.411,56.617C438.735,59.443 442.135,61.1 446.611,61.585C448.533,61.793 450.375,61.767 452.141,61.506C453.897,61.257 455.191,60.935 456.029,60.543L457.193,60.04L459.013,64.342C458.841,64.432 458.601,64.577 458.289,64.779C457.977,64.981 457.327,65.293 456.337,65.71C455.349,66.13 454.283,66.487 453.147,66.783C450.271,67.576 447.121,67.789 443.695,67.418ZM455.795,43.808C455.877,40.555 455.089,37.984 453.425,36.099C451.761,34.212 449.461,33.111 446.523,32.793C443.595,32.476 441.077,33.03 438.971,34.456C436.873,35.882 435.359,38.229 434.427,41.497L455.795,43.808ZM487.161,68.593L486.719,71.941L466.285,69.231L466.729,65.883L473.587,64.195L477.267,36.446L470.745,35.582L471.365,30.919C473.515,30.204 475.859,30.013 478.397,30.349C480.935,30.685 482.625,31.458 483.465,32.668C484.303,33.888 484.637,35.568 484.459,37.708C485.185,36.221 486.431,34.966 488.205,33.942C490.319,32.694 492.957,32.279 496.119,32.698C497.513,32.884 498.823,33.239 500.045,33.767C501.265,34.296 502.137,34.777 502.663,35.213L503.523,35.893L502.309,45.063L497.643,44.443L497.247,39.646C496.983,39.287 496.153,39.017 494.757,38.831C493.349,38.644 491.975,38.661 490.633,38.881C489.289,39.101 488.215,39.449 487.411,39.922C485.797,40.967 484.593,42.099 483.797,43.318L480.901,65.163L487.161,68.593Z" fill="#67BF00" fill-opacity="0.54"/>
</svg>
