<svg width="212" height="120" viewBox="0 0 212 120" fill="none" xmlns="http://www.w3.org/2000/svg" xmlns:xlink="http://www.w3.org/1999/xlink">
<path d="M211.778,77.988C211.676,77.644 210.95,77.322 210.566,76.778C210.85,76.17 211.508,75.728 211.53,75.371C211.578,74.92 211.594,74.76 211.312,73.196C211.042,71.637 210.99,71.582 210.802,71.174C210.642,70.849 209.874,70.657 209.404,70.187C209.58,69.541 210.144,68.992 210.112,68.639C210.078,68.193 210.062,68.028 209.52,66.535C208.984,65.046 208.926,64.999 208.67,64.635C208.452,64.345 207.664,64.286 207.118,63.906C207.182,63.24 207.64,62.601 207.546,62.26C207.436,61.825 207.394,61.669 206.598,60.289C205.81,58.914 205.74,58.887 205.426,58.569C205.168,58.315 204.376,58.397 203.772,58.119C203.714,57.453 204.054,56.747 203.906,56.422C203.722,56.015 203.656,55.866 202.632,54.647C201.614,53.429 201.548,53.413 201.178,53.154C200.888,52.958 200.152,53.166 199.517,53.017L199.451,52.951C199.302,52.316 199.509,51.583 199.31,51.297C199.059,50.929 198.965,50.799 197.746,49.773C196.531,48.75 196.465,48.742 196.057,48.554C195.724,48.405 195.011,48.75 194.345,48.695C194.067,48.092 194.145,47.308 193.894,47.053C193.577,46.732 193.463,46.619 192.088,45.827C190.713,45.028 190.646,45.036 190.211,44.922C189.859,44.832 189.224,45.298 188.562,45.361C188.174,44.808 188.119,44.021 187.825,43.817C187.465,43.554 187.331,43.464 185.835,42.92C184.342,42.375 184.279,42.387 183.828,42.355C183.468,42.324 182.915,42.896 182.273,43.069C181.803,42.594 181.611,41.826 181.289,41.674C180.882,41.482 180.737,41.419 179.17,41.141C177.61,40.863 177.543,40.894 177.097,40.933C176.74,40.964 176.297,41.623 175.694,41.909C175.145,41.525 174.824,40.804 174.475,40.71C174.044,40.588 173.892,40.549 172.297,40.549C170.71,40.549 170.651,40.588 170.216,40.71C169.871,40.804 169.55,41.525 169.002,41.913C168.39,41.627 167.951,40.964 167.603,40.949C167.148,40.898 166.988,40.886 165.424,41.164C163.857,41.431 163.818,41.486 163.394,41.682C163.073,41.842 162.881,42.606 162.411,43.076C161.761,42.9 161.22,42.324 160.867,42.371C160.409,42.406 160.248,42.422 158.759,42.963C157.262,43.496 157.231,43.551 156.859,43.821C156.565,44.032 156.51,44.824 156.13,45.365C155.53,45.314 154.99,44.977 154.633,44.969L146.326,26.549L146.323,26.545L147.666,25.938L141.448,12.22C142.698,10.155 144.054,7.643 144.101,4.955C144.101,4.536 144.038,4.101 143.948,3.67C144.042,3.51 144.14,3.353 144.191,3.161L144.214,3.079C144.234,2.949 144.247,2.818 144.254,2.687C144.32,1.915 143.678,0.9 143.023,0.622C142.543,0.375 142.007,0.256 141.468,0.277C139.975,0.304 138.321,0.786 136.445,1.225C134.603,1.672 132.648,2.079 131.351,2.076C131.084,2.08 130.817,2.058 130.555,2.009C130.079,1.957 129.602,2.092 129.219,2.38C128.836,2.667 128.576,3.089 128.493,3.561C128.409,4.032 128.507,4.518 128.768,4.919C129.029,5.321 129.432,5.608 129.897,5.723C130.379,5.806 130.869,5.841 131.351,5.841C132.377,5.837 133.447,5.692 134.505,5.5C133.976,5.864 133.122,6.143 131.492,6.166C130.967,6.166 130.363,6.127 129.666,6.053C129.543,6.038 129.418,6.049 129.298,6.083C129.179,6.118 129.068,6.175 128.971,6.253C128.874,6.33 128.793,6.426 128.734,6.535C128.674,6.644 128.637,6.764 128.624,6.887C128.569,7.404 128.937,7.867 129.454,7.929C130.203,8.012 130.881,8.051 131.496,8.051L131.523,8.051C133.749,8.051 135.175,7.483 136.068,6.66C136.754,6.025 137.083,5.324 137.291,4.897L137.314,4.897C138.376,4.626 139.411,4.387 140.198,4.227C140.295,4.458 140.341,4.708 140.331,4.959C140.355,5.88 139.814,7.451 139.027,8.905C138.243,10.371 137.283,11.75 136.633,12.604C136.213,13.176 135.943,13.489 135.943,13.489C135.615,13.824 135.39,14.246 135.293,14.704L134.195,15.202L134.936,16.836L127.816,20.135C125.223,21.295 122.292,22.725 119.251,24.347L109.624,29.327C103.069,32.709 96.611,36.247 91.729,38.829L85.229,42.348L73.497,11.957C73.384,11.519 73.117,10.629 70.966,9.63L71.436,9.606C72.378,9.518 73.271,9.148 73.999,8.545L76.945,5.888C77.823,5.904 78.473,5.951 78.638,6.045C79.21,6.37 82.701,6.452 83.998,6.452C85.303,6.452 87.333,6.535 87.658,6.535C87.983,6.535 88.955,5.723 87.415,4.748C85.867,3.772 83.595,1.821 76.855,1.821L56.868,1.821C55.892,1.821 54.544,1.66 53.459,1.335C52.19,0.955 47.609,0.688 46.88,1.01C46.144,1.335 46.281,2.119 47.531,3.29C48.369,4.07 49.842,5.473 50.669,5.884C51.312,6.209 53.592,7.122 56.045,7.714L57.342,9.152C57.895,9.755 58.941,10.21 59.783,10.21L59.897,10.206L63.984,9.994C63.953,10.19 63.937,10.388 63.937,10.586C63.937,12.31 64.83,13.764 67.224,13.819C68.031,13.834 69.238,13.587 70.108,13.2L70.147,13.215L83.532,47.825C82.149,48.319 80.793,48.923 79.567,49.64C79.282,49.688 79.012,49.799 78.775,49.965L70.79,55.729C70.509,55.358 70.218,54.996 69.916,54.643C68.897,53.425 68.831,53.409 68.462,53.15C68.172,52.954 67.436,53.162 66.801,53.013L66.734,52.947C66.585,52.312 66.793,51.579 66.593,51.293C66.342,50.925 66.248,50.795 65.03,49.769C63.815,48.746 63.749,48.738 63.341,48.55C63.008,48.401 62.295,48.746 61.629,48.691C61.351,48.088 61.429,47.304 61.178,47.05C60.861,46.728 60.747,46.615 59.372,45.823C57.996,45.024 57.93,45.032 57.495,44.918C57.142,44.828 56.508,45.294 55.845,45.357C55.457,44.804 55.403,44.017 55.109,43.813C54.748,43.551 54.615,43.46 53.118,42.916C51.625,42.371 51.563,42.383 51.112,42.352C50.752,42.32 50.199,42.892 49.556,43.065C49.086,42.591 48.894,41.823 48.573,41.67C48.165,41.478 48.02,41.415 46.453,41.137C44.894,40.859 44.827,40.89 44.38,40.929C44.024,40.961 43.581,41.619 42.978,41.905C42.429,41.521 42.108,40.8 41.759,40.706C41.328,40.584 41.175,40.545 39.58,40.545C37.994,40.545 37.935,40.584 37.5,40.706C37.155,40.8 36.834,41.521 36.285,41.909C35.674,41.623 35.235,40.961 34.886,40.945C34.432,40.894 34.271,40.882 32.708,41.16C31.141,41.427 31.101,41.482 30.678,41.678C30.357,41.838 30.165,42.602 29.695,43.073C29.044,42.896 28.504,42.32 28.151,42.367C27.692,42.402 27.532,42.418 26.043,42.959C24.546,43.492 24.515,43.547 24.142,43.817C23.849,44.029 23.794,44.82 23.414,45.361C22.74,45.302 22.105,44.832 21.768,44.934C21.321,45.047 21.165,45.086 19.793,45.882C18.414,46.669 18.394,46.732 18.069,47.061C17.818,47.316 17.901,48.104 17.626,48.703C16.952,48.762 16.243,48.405 15.93,48.566C15.51,48.758 15.361,48.825 14.151,49.843C12.928,50.862 12.92,50.921 12.654,51.301C12.458,51.595 12.67,52.335 12.521,52.962L12.47,53.013C11.827,53.17 11.087,52.947 10.808,53.162C10.428,53.417 10.295,53.515 9.276,54.722C8.25,55.94 8.25,55.999 8.058,56.422C7.909,56.747 8.258,57.464 8.199,58.123C7.588,58.405 6.804,58.315 6.565,58.573C6.236,58.895 6.122,59.008 5.327,60.383C4.531,61.759 4.543,61.818 4.426,62.26C4.335,62.613 4.802,63.256 4.86,63.91C4.304,64.298 3.516,64.345 3.321,64.643C3.058,65.019 2.964,65.152 2.423,66.641C1.867,68.134 1.894,68.193 1.851,68.651C1.824,69.012 2.396,69.564 2.572,70.203C2.094,70.677 1.322,70.861 1.185,71.19C0.989,71.602 0.927,71.75 0.648,73.31C0.358,74.869 0.398,74.932 0.433,75.387C0.472,75.747 1.13,76.194 1.408,76.785C1.021,77.338 0.3,77.655 0.217,78C0.092,78.439 0.053,78.596 0.057,80.183C0.041,81.773 0.088,81.828 0.202,82.263C0.303,82.608 1.032,82.933 1.412,83.478C1.122,84.085 0.468,84.528 0.448,84.881C0.401,85.331 0.386,85.492 0.668,87.055C0.93,88.623 0.985,88.666 1.177,89.081C1.338,89.406 2.11,89.602 2.576,90.068C2.396,90.719 1.828,91.26 1.871,91.612C1.902,92.071 1.918,92.231 2.459,93.716C2.995,95.217 3.054,95.252 3.317,95.621C3.528,95.911 4.324,95.969 4.864,96.346C4.802,97.019 4.331,97.654 4.441,97.991C4.551,98.434 4.594,98.587 5.389,99.962C6.173,101.345 6.244,101.365 6.561,101.686C6.816,101.933 7.611,101.855 8.211,102.133C8.269,102.807 7.917,103.516 8.081,103.829C8.265,104.249 8.332,104.39 9.359,105.604C10.37,106.827 10.436,106.839 10.805,107.101C11.102,107.301 11.855,107.089 12.493,107.25L12.521,107.274C12.681,107.92 12.466,108.665 12.677,108.947C12.928,109.327 13.026,109.452 14.241,110.471C15.452,111.505 15.522,111.501 15.934,111.693C16.263,111.838 16.976,111.494 17.638,111.552C17.916,112.164 17.834,112.947 18.093,113.194C18.406,113.519 18.52,113.629 19.899,114.417C21.27,115.22 21.337,115.204 21.776,115.326C22.128,115.408 22.767,114.95 23.429,114.891C23.813,115.443 23.868,116.231 24.166,116.431C24.534,116.697 24.667,116.783 26.16,117.324C27.649,117.88 27.712,117.857 28.17,117.896C28.527,117.92 29.076,117.351 29.718,117.179C30.192,117.657 30.38,118.421 30.713,118.566C31.121,118.766 31.266,118.825 32.825,119.103C34.385,119.381 34.448,119.346 34.902,119.318C35.263,119.279 35.705,118.625 36.305,118.339C36.853,118.727 37.171,119.448 37.523,119.534C37.958,119.655 38.111,119.691 39.698,119.691C41.285,119.702 41.344,119.652 41.779,119.542C42.131,119.444 42.449,118.723 42.993,118.335C43.601,118.621 44.043,119.279 44.4,119.299C44.847,119.346 45.007,119.354 46.571,119.079C48.134,118.817 48.177,118.754 48.596,118.57C48.922,118.406 49.114,117.641 49.58,117.171C50.23,117.348 50.775,117.92 51.132,117.88C51.582,117.845 51.743,117.826 53.228,117.289C54.725,116.752 54.76,116.693 55.132,116.439C55.422,116.219 55.481,115.432 55.861,114.887C56.531,114.95 57.166,115.412 57.515,115.314C57.949,115.2 58.102,115.153 59.478,114.366C60.861,113.578 60.88,113.508 61.206,113.194C61.456,112.932 61.374,112.144 61.648,111.541C62.318,111.486 63.028,111.835 63.353,111.674C63.76,111.486 63.913,111.419 65.12,110.4C66.342,109.382 66.35,109.315 66.621,108.947C66.817,108.649 66.605,107.904 66.762,107.27L66.797,107.231C67.443,107.074 68.184,107.289 68.474,107.078C68.846,106.819 68.979,106.725 69.994,105.514C71.021,104.3 71.021,104.233 71.217,103.826C71.362,103.489 71.013,102.779 71.068,102.117C71.679,101.835 72.463,101.921 72.714,101.659C73.035,101.345 73.148,101.232 73.936,99.852C74.739,98.481 74.728,98.414 74.849,97.979C74.935,97.623 74.469,96.988 74.41,96.322C74.963,95.938 75.75,95.883 75.95,95.585C76.213,95.217 76.307,95.084 76.847,93.595L76.867,93.544L88.191,89.959C88.759,90.104 89.433,90.233 90.213,90.233C92.117,90.233 93.606,89.504 93.606,89.504C94.311,89.163 94.566,88.54 94.35,87.949C94.75,87.714 95.118,87.443 95.471,87.141C95.961,87.549 96.635,87.498 97.183,86.926C97.183,86.926 98.331,85.731 98.927,83.925C99.319,82.71 99.334,81.621 99.311,80.998C100.807,80.294 102.201,79.393 103.456,78.317C105.058,76.834 106.5,75.187 107.759,73.404C109.06,71.531 110.274,69.752 111.559,67.589L118.804,54.925C121.256,50.685 123.613,46.391 125.873,42.046L129.07,36.039C129.509,35.205 129.944,34.397 130.355,33.61L131.895,31.145C132.397,30.338 132.832,30.318 133.212,29.856L133.764,29.3L134.587,28.786C135.645,28.112 136.515,27.482 137.491,27.094L139.226,26.247L140.543,29.151L141.883,28.543L150.574,47.81C150.531,48.096 150.488,48.409 150.358,48.687C149.684,48.746 148.975,48.39 148.662,48.55C148.242,48.742 148.094,48.809 146.883,49.828C145.66,50.846 145.652,50.905 145.386,51.285C145.19,51.579 145.402,52.32 145.253,52.947L145.202,52.998C144.559,53.154 143.819,52.931 143.541,53.146C143.16,53.401 143.027,53.499 142.008,54.706C140.982,55.924 140.982,55.983 140.79,56.406C140.641,56.732 140.99,57.449 140.931,58.107C140.32,58.389 139.536,58.299 139.297,58.558C138.968,58.879 138.854,58.993 138.059,60.368C137.263,61.743 137.275,61.802 137.158,62.245C137.068,62.597 137.534,63.24 137.593,63.894C137.036,64.282 136.249,64.329 136.053,64.627C135.79,65.003 135.696,65.136 135.155,66.625C134.599,68.118 134.626,68.177 134.583,68.635C134.556,68.996 135.128,69.548 135.304,70.187C134.826,70.661 134.054,70.845 133.917,71.174C133.721,71.586 133.659,71.735 133.38,73.294C133.09,74.854 133.13,74.916 133.165,75.371C133.204,75.731 133.862,76.178 134.141,76.77C133.753,77.322 133.032,77.64 132.949,77.984C132.824,78.423 132.785,78.58 132.789,80.167C132.773,81.758 132.82,81.813 132.934,82.248C133.036,82.592 133.764,82.918 134.144,83.462C133.855,84.07 133.2,84.512 133.181,84.865C133.134,85.316 133.118,85.476 133.4,87.04C133.663,88.607 133.717,88.65 133.909,89.065C134.07,89.391 134.842,89.586 135.308,90.053C135.128,90.703 134.56,91.244 134.603,91.597C134.634,92.055 134.65,92.216 135.191,93.701C135.727,95.201 135.786,95.237 136.049,95.605C136.26,95.895 137.056,95.954 137.596,96.33C137.534,97.004 137.064,97.639 137.173,97.976C137.283,98.418 137.326,98.571 138.122,99.946C138.905,101.33 138.976,101.349 139.293,101.67C139.548,101.917 140.343,101.839 140.943,102.117C141.001,102.791 140.649,103.5 140.813,103.814C140.998,104.233 141.064,104.374 142.091,105.589C143.102,106.811 143.168,106.823 143.537,107.086C143.834,107.285 144.587,107.074 145.225,107.234L145.253,107.258C145.413,107.904 145.198,108.649 145.41,108.931C145.66,109.311 145.758,109.437 146.973,110.455C148.184,111.49 148.254,111.486 148.666,111.678C148.995,111.823 149.708,111.478 150.37,111.537C150.648,112.148 150.566,112.932 150.825,113.178C151.138,113.504 151.252,113.613 152.631,114.401C154.002,115.204 154.069,115.189 154.508,115.31C154.86,115.392 155.499,114.934 156.161,114.875C156.545,115.428 156.6,116.215 156.898,116.415C157.266,116.681 157.4,116.768 158.892,117.308C160.381,117.865 160.444,117.841 160.902,117.88C161.259,117.904 161.808,117.336 162.45,117.163C162.924,117.641 163.112,118.405 163.445,118.55C163.853,118.75 163.998,118.809 165.557,119.087C167.117,119.365 167.18,119.33 167.634,119.303C167.995,119.264 168.437,118.609 169.037,118.323C169.585,118.711 169.903,119.432 170.255,119.518C170.69,119.64 170.843,119.675 172.43,119.675C174.017,119.687 174.076,119.636 174.511,119.526C174.863,119.428 175.181,118.707 175.725,118.319C176.333,118.605 176.775,119.264 177.132,119.283C177.579,119.33 177.739,119.338 179.303,119.064C180.866,118.801 180.909,118.739 181.328,118.554C181.654,118.39 181.846,117.626 182.312,117.156C182.962,117.332 183.507,117.904 183.864,117.865C184.314,117.83 184.475,117.81 185.96,117.273C187.457,116.736 187.492,116.678 187.864,116.423C188.154,116.203 188.213,115.416 188.593,114.871C189.263,114.934 189.898,115.396 190.247,115.298C190.681,115.185 190.834,115.138 192.21,114.35C193.593,113.562 193.612,113.492 193.938,113.178C194.188,112.916 194.106,112.128 194.38,111.525C195.05,111.47 195.76,111.819 196.085,111.658C196.492,111.47 196.645,111.404 197.852,110.385C199.074,109.366 199.082,109.299 199.353,108.931C199.549,108.633 199.337,107.889 199.494,107.254L199.529,107.215C200.176,107.058 200.916,107.274 201.206,107.062C201.578,106.803 201.712,106.709 202.726,105.499C203.754,104.284 203.754,104.217 203.948,103.81C204.094,103.473 203.746,102.764 203.8,102.101C204.412,101.819 205.194,101.906 205.446,101.643C205.768,101.33 205.88,101.216 206.668,99.837C207.472,98.465 207.46,98.399 207.582,97.964C207.668,97.607 207.202,96.972 207.142,96.306C207.694,95.922 208.482,95.868 208.682,95.57C208.944,95.201 209.038,95.068 209.58,93.579C210.132,92.086 210.108,92.028 210.152,91.573C210.176,91.209 209.604,90.66 209.43,90.017C209.904,89.547 210.668,89.355 210.818,89.03C211.01,88.623 211.076,88.474 211.354,86.91C211.636,85.355 211.606,85.288 211.57,84.841C211.53,84.477 210.872,84.038 210.59,83.439C210.978,82.89 211.7,82.569 211.786,82.224C211.906,81.785 211.95,81.628 211.946,80.038C211.93,78.482 211.892,78.427 211.778,77.988ZM68.862,8.76C68.368,7.941 67.561,7.397 66.64,7.397C65.637,7.397 64.763,8.043 64.297,8.999L59.842,9.226C59.176,9.216 58.538,8.953 58.059,8.49L57.652,8.043C58.451,8.172 59.231,8.251 59.956,8.239C63.502,8.184 64.912,6.452 66.209,6.205C67.51,5.962 70.03,5.962 70.03,5.962C70.95,5.962 73.435,5.88 75.503,5.876L73.344,7.816C72.782,8.269 72.1,8.551 71.381,8.627L68.862,8.76ZM79.206,79.614C79.202,78.525 79.159,78.376 79.061,77.992C78.959,77.647 78.234,77.326 77.85,76.782C78.133,76.174 78.791,75.731 78.814,75.375C78.856,74.98 78.838,74.581 78.759,74.192L84.194,74.27C83.551,74.86 82.993,75.536 82.537,76.28C82.129,77.04 82.376,77.742 83.03,78.059C82.859,78.477 82.724,78.91 82.627,79.352C82.44,79.303 82.243,79.304 82.056,79.356C81.87,79.408 81.7,79.508 81.565,79.646L79.206,79.614ZM48.377,79.277C48.324,78.527 48.163,77.788 47.899,77.083L52.417,73.819L69.426,74.058C69.787,75.822 69.967,77.651 70.002,79.513L48.377,79.277ZM45.446,73.721L45.854,73.725L45.638,73.878L45.446,73.721ZM53.753,72.855L65.578,64.321C67.212,66.998 68.439,69.936 69.187,73.071L53.753,72.855ZM92.509,63.945L91.972,71.1C91.933,71.594 92.168,72.033 92.524,72.323L92.438,72.303C91.611,72.158 91.028,72.577 90.902,73.275C90.71,73.263 90.53,73.216 90.334,73.216C90.267,73.216 90.209,73.232 90.142,73.235L91.165,52.214C91.545,51.65 92.027,51.128 92.524,50.658L91.674,61.966C91.652,62.338 91.716,62.71 91.861,63.053C92.006,63.396 92.227,63.701 92.509,63.945ZM85.683,54.392C85.683,54.392 85.765,54.443 85.906,54.514L86.565,72.765C86.198,72.917 85.843,73.097 85.503,73.302L78.595,73.208L78.595,73.2C78.325,71.641 78.274,71.586 78.086,71.178C77.925,70.853 77.157,70.661 76.687,70.191C76.863,69.544 77.427,68.996 77.396,68.643C77.361,68.197 77.345,68.032 76.804,66.539C76.267,65.05 76.209,65.003 75.954,64.639C75.735,64.349 74.947,64.29 74.402,63.91C74.465,63.244 74.923,62.605 74.829,62.264C74.72,61.829 74.677,61.673 73.881,60.293C73.633,59.824 73.352,59.373 73.043,58.942L80.585,53.495C83.171,52.226 85.683,54.392 85.683,54.392ZM39.655,110.498C31.656,110.408 24.016,107.166 18.392,101.478C12.768,95.79 9.614,88.113 9.614,80.114C9.614,72.115 12.768,64.438 18.392,58.75C24.016,53.062 31.656,49.821 39.655,49.73C44.203,49.726 48.694,50.747 52.794,52.716C56.893,54.685 60.497,57.552 63.337,61.104L47.186,72.765L43.879,72.718C42.806,72.19 41.627,71.914 40.431,71.911C38.307,71.911 36.27,72.755 34.768,74.257C33.266,75.759 32.422,77.796 32.422,79.92C32.422,82.044 33.266,84.081 34.768,85.583C36.27,87.085 38.307,87.929 40.431,87.929C40.537,87.929 40.635,87.902 40.736,87.898C40.198,88.142 39.759,88.564 39.494,89.092C39.229,89.62 39.152,90.224 39.278,90.802C39.404,91.38 39.723,91.897 40.184,92.268C40.645,92.638 41.219,92.84 41.81,92.839C42.151,92.84 42.488,92.773 42.803,92.644C43.118,92.514 43.404,92.323 43.645,92.083C43.886,91.842 44.077,91.556 44.207,91.241C44.338,90.927 44.404,90.589 44.404,90.249C44.4,89.631 44.173,89.035 43.765,88.572C43.357,88.108 42.795,87.807 42.182,87.725C43.397,87.454 44.532,86.902 45.496,86.114C46.46,85.326 47.226,84.324 47.734,83.188L69.849,83.431C69.353,87.949 67.842,92.297 65.429,96.15L47.695,101.765C47.876,101.414 47.972,101.026 47.977,100.632C47.977,100.119 47.825,99.618 47.54,99.191C47.255,98.764 46.85,98.432 46.376,98.236C45.902,98.039 45.381,97.988 44.877,98.088C44.374,98.188 43.912,98.435 43.549,98.798C43.187,99.161 42.94,99.623 42.839,100.126C42.739,100.629 42.791,101.151 42.987,101.625C43.183,102.099 43.516,102.504 43.942,102.789C44.369,103.074 44.87,103.226 45.383,103.226C45.658,103.226 45.909,103.148 46.155,103.069L46.218,103.257L64.595,97.439C61.803,101.469 58.076,104.763 53.732,107.038C49.388,109.312 44.558,110.5 39.655,110.498ZM76.695,90.049C77.169,89.579 77.933,89.387 78.082,89.061C78.274,88.654 78.34,88.505 78.618,86.942C78.901,85.386 78.869,85.319 78.834,84.873C78.795,84.52 78.183,84.093 77.89,83.521L81.432,83.56C81.467,83.686 81.475,83.799 81.514,83.921C82.106,85.727 83.258,86.922 83.258,86.922C83.838,87.525 84.559,87.533 85.068,87.047C85.405,87.349 85.758,87.627 86.142,87.866C85.859,88.442 86.055,89.046 86.682,89.426L77.259,92.408C77.339,92.146 77.391,91.877 77.415,91.604C77.439,91.24 76.867,90.691 76.695,90.049ZM122.805,33.018L119.96,39.001C117.931,43.387 115.798,47.724 113.566,52.01L106.901,64.999C105.898,66.888 104.667,68.898 103.605,70.579C102.623,72.123 101.5,73.574 100.251,74.913C99.567,75.56 98.826,76.145 98.037,76.66C98.002,76.539 97.994,76.421 97.928,76.296C97.928,76.296 97.152,74.83 95.612,73.71C94.979,73.26 94.289,72.897 93.559,72.632C93.904,72.61 94.23,72.465 94.478,72.224C94.726,71.982 94.88,71.66 94.911,71.316L95.447,64.157C95.763,63.96 96.028,63.693 96.222,63.376C96.415,63.059 96.533,62.701 96.564,62.331L97.681,47.473C97.729,46.825 97.519,46.185 97.096,45.693C96.673,45.201 96.071,44.897 95.424,44.847C95.021,44.812 94.615,44.883 94.248,45.054C93.881,45.224 93.565,45.488 93.332,45.819L91.447,45.819C91.447,45.819 89.492,46.097 86.949,46.76L86.341,45.188L93.316,41.96C98.339,39.691 104.992,36.568 111.716,33.618L121.582,29.276C123.048,28.61 124.451,27.999 125.802,27.435L124.325,29.895C123.828,30.906 123.322,31.948 122.805,33.018ZM172.371,110.498C164.314,110.497 156.586,107.296 150.889,101.598C145.191,95.901 141.99,88.174 141.989,80.116C141.99,75.4 143.091,70.75 145.205,66.534C147.318,62.318 150.385,58.653 154.163,55.83L167.274,84.904C167.405,85.197 167.594,85.462 167.828,85.682C168.062,85.903 168.337,86.075 168.638,86.189C168.938,86.302 169.258,86.356 169.58,86.346C169.901,86.336 170.217,86.263 170.51,86.131C170.817,85.99 171.091,85.787 171.315,85.535C171.539,85.283 171.708,84.986 171.811,84.665C171.999,84.689 172.164,84.775 172.356,84.775C173.589,84.775 174.772,84.285 175.644,83.413C176.517,82.54 177.007,81.357 177.007,80.124C177.007,78.89 176.517,77.707 175.644,76.835C174.772,75.963 173.589,75.473 172.356,75.473C171.735,75.473 171.12,75.597 170.549,75.84C169.977,76.082 169.46,76.437 169.029,76.883L158.336,53.178C162.664,50.908 167.48,49.723 172.367,49.726C176.358,49.726 180.309,50.512 183.995,52.039C187.682,53.566 191.031,55.804 193.852,58.626C196.674,61.448 198.912,64.797 200.438,68.484C201.964,72.171 202.75,76.122 202.75,80.112C202.752,84.103 201.968,88.054 200.442,91.742C198.917,95.429 196.68,98.779 193.858,101.601C191.037,104.423 187.687,106.662 184,108.188C180.313,109.715 176.362,110.5 172.371,110.498Z" fill="#67BF00" fill-opacity="0.54"/>
<path d="M104.661,51.99L94.105,51.99L94.105,54.928L104.661,54.928L104.661,51.99Z" transform="rotate(-171.432 99.383 53.459)" fill="#67BF00" fill-opacity="0.54"/>
</svg>
